<svg width="385" height="397" viewBox="0 0 385 397" fill="none" xmlns="http://www.w3.org/2000/svg">
<g filter="url(#filter0_f_65_4692)">
<rect x="101" y="66.0001" width="229" height="231" rx="99" fill="#C16F96"/>
<rect x="95" y="60.0001" width="241" height="243" rx="105" stroke="#C16F96" stroke-width="12"/>
</g>
<path d="M324.161 234.443C315.943 248.749 304.974 261.288 291.888 271.335C278.802 281.383 263.857 288.742 247.914 292.988C231.971 297.235 215.345 298.284 198.995 296.076C182.644 293.867 166.893 288.446 152.647 280.123C141.035 273.397 130.566 264.866 121.634 254.851C121.215 247.146 117.879 239.89 112.304 234.555C109.804 231.786 106.748 229.573 103.337 228.062C90.8517 203.188 86.9563 174.879 92.2591 147.558C97.5618 120.236 111.764 95.4396 132.647 77.0416C141.161 79.7644 148.891 78.5271 151.41 73.4041C152.066 71.8736 152.352 70.2099 152.245 68.5481C152.138 66.8863 151.641 65.2732 150.793 63.8396C170.529 51.9893 193.143 45.7933 216.162 45.9291C239.182 46.0648 261.721 52.5271 281.315 64.6094C300.909 76.6916 316.804 93.9287 327.262 114.436C337.72 134.943 342.339 157.931 340.612 180.886L339.575 181.164C334.065 182.057 329.133 185.099 325.864 189.624C322.594 194.148 321.252 199.785 322.134 205.297C322.797 209.57 324.829 213.513 327.925 216.533C328.721 217.432 329.379 217.811 330.176 218.71L331.162 219.279C329.314 224.544 326.97 229.622 324.161 234.443Z" fill="#FFECE1"/>
<path d="M322.517 233.494C314.414 247.53 303.625 259.833 290.766 269.699C277.908 279.566 263.233 286.803 247.577 290.998C231.922 295.192 215.594 296.263 199.525 294.147C183.456 292.032 167.962 286.772 153.926 278.668C142.537 272.042 132.299 263.614 123.609 253.71C123.451 249.972 122.558 246.301 120.981 242.907C119.404 239.514 117.174 236.464 114.418 233.933C111.968 231.291 109.117 229.053 105.969 227.301C93.6742 202.888 89.8162 175.088 94.9979 148.249C100.18 121.41 114.109 97.0449 134.608 78.9626C142.793 81.4955 150.523 80.2582 153.042 75.1352C153.719 73.6578 154.001 72.0298 153.859 70.4108C153.718 68.7917 153.158 67.2372 152.235 65.8996C171.673 54.2345 193.944 48.1394 216.613 48.2809C239.282 48.4224 261.475 54.7951 280.765 66.702C300.056 78.6089 315.7 95.5913 325.988 115.792C336.275 135.992 340.81 158.633 339.095 181.237L338.057 181.515C332.685 182.372 327.871 185.324 324.673 189.725C321.474 194.126 320.152 199.616 320.996 204.99C321.659 209.264 323.691 213.207 326.786 216.227C327.583 217.125 328.241 217.505 329.038 218.403L330.024 218.973C327.467 224.162 325.138 228.956 322.517 233.494Z" fill="#6FBBC4"/>
<path d="M221.649 288.742C234.231 288.56 244.318 280.592 244.178 270.945C244.038 261.299 233.725 253.627 221.143 253.809C208.56 253.991 198.474 261.959 198.613 271.605C198.753 281.252 209.066 288.924 221.649 288.742Z" fill="#D7F0EE"/>
<path d="M221.626 290.209C234.208 290.027 244.3 282.399 244.166 273.172C244.033 263.945 233.724 256.612 221.142 256.795C208.559 256.977 198.468 264.605 198.601 273.832C198.735 283.059 209.043 290.391 221.626 290.209Z" fill="#1B403D"/>
<path d="M221.873 288.918C234.455 288.736 244.547 281.108 244.413 271.881C244.28 262.654 233.971 255.321 221.389 255.504C208.806 255.686 198.715 263.314 198.848 272.541C198.982 281.768 209.291 289.1 221.873 288.918Z" fill="#1C5955"/>
<path d="M221.428 281.501C232.333 281.343 241.089 275.435 240.986 268.305C240.883 261.175 231.959 255.523 221.054 255.681C210.15 255.839 201.393 261.747 201.497 268.877C201.6 276.007 210.524 281.659 221.428 281.501Z" fill="#2A867F"/>
<path d="M328.481 218.608C327.609 218.021 326.846 217.284 326.23 216.431C322.384 212.521 320.248 207.245 320.29 201.76C320.332 196.276 322.549 191.033 326.455 187.182C329.474 184.086 333.417 182.054 337.691 181.391C340.04 151.56 331.69 121.867 314.136 97.6328C312.531 136.999 301.228 175.359 281.232 209.307C270.426 228.056 257.327 245.387 242.237 260.899C244.841 263.47 246.445 266.883 246.763 270.528C246.573 270.857 246.902 271.047 246.712 271.375L246.851 271.894L246.99 272.413L247.129 272.932C247.228 282.635 237.395 290.552 224.63 290.636C219.757 290.864 214.904 289.871 210.512 287.747C207.159 289.758 204.653 291.819 201.49 293.501C227.921 296.514 254.613 290.834 277.527 277.321C300.441 263.807 318.329 243.196 328.481 218.608Z" fill="#5B99A1"/>
<path d="M206.505 92.7496C213.42 92.4827 218.863 88.019 218.661 82.7797C218.459 77.5404 212.688 73.5095 205.772 73.7764C198.856 74.0433 193.414 78.5069 193.616 83.7462C193.818 88.9855 199.589 93.0165 206.505 92.7496Z" fill="#D7F0EE"/>
<path d="M206.77 90.9877C213.686 90.7208 219.135 86.427 218.941 81.3973C218.747 76.3675 212.983 72.5065 206.067 72.7734C199.151 73.0403 193.702 77.334 193.896 82.3638C194.09 87.3935 199.854 91.2546 206.77 90.9877Z" fill="#1B403D"/>
<path d="M206.769 91.8871C213.685 91.6202 219.134 87.3264 218.94 82.2967C218.746 77.2669 212.982 73.4059 206.066 73.6728C199.15 73.9397 193.701 78.2334 193.895 83.2632C194.09 88.2929 199.853 92.1539 206.769 91.8871Z" fill="#1C5955"/>
<path d="M206.822 91.8133C212.899 91.5788 217.708 88.3306 217.563 84.5583C217.417 80.786 212.372 77.9181 206.295 78.1526C200.217 78.3871 195.408 81.6353 195.554 85.4076C195.699 89.1799 200.744 92.0479 206.822 91.8133Z" fill="#2A867F"/>
<path d="M118.289 195.947C125.56 194.943 129.781 182.003 127.716 167.045C125.651 152.086 118.082 140.773 110.811 141.777C103.539 142.781 99.3186 155.721 101.384 170.68C103.449 185.638 111.017 196.951 118.289 195.947Z" fill="#D7F0EE"/>
<path d="M116.456 196.239C123.312 195.292 127.195 182.399 125.13 167.44C123.065 152.482 115.833 141.123 108.977 142.069C102.121 143.016 98.2375 155.909 100.303 170.868C102.368 185.826 109.6 197.185 116.456 196.239Z" fill="#1B403D"/>
<path d="M117.398 196.309C124.254 195.363 128.138 182.469 126.073 167.51C124.008 152.552 116.776 141.193 109.92 142.139C103.064 143.086 99.1799 155.979 101.245 170.938C103.31 185.897 110.542 197.256 117.398 196.309Z" fill="#1C5955"/>
<path d="M119.835 192.412C125.029 191.695 127.774 180.504 125.967 167.415C124.16 154.326 118.485 144.297 113.291 145.014C108.097 145.731 105.352 156.923 107.158 170.011C108.965 183.1 114.641 193.129 119.835 192.412Z" fill="#2A867F"/>
<path d="M185.306 179.515C195.92 178.05 203.384 168.611 201.979 158.431C200.574 148.252 190.831 141.188 180.217 142.653C169.604 144.118 162.139 153.558 163.544 163.737C164.95 173.916 174.693 180.981 185.306 179.515Z" fill="#2A867F"/>
<path d="M174.037 175.481C181.302 179.676 190.762 176.892 195.166 169.264C199.57 161.635 197.251 152.051 189.986 147.856C182.721 143.661 173.261 146.445 168.856 154.074C164.452 161.702 166.771 171.287 174.037 175.481Z" fill="#1B403D"/>
<path d="M253.349 166.461C260.433 170.551 269.746 167.682 274.15 160.054C278.554 152.425 276.382 142.926 269.299 138.836C262.215 134.746 252.902 137.615 248.498 145.243C244.094 152.872 246.266 162.371 253.349 166.461Z" fill="#1B403D"/>
<path d="M174.606 174.495C181.871 178.689 191.161 176.2 195.355 168.935C199.55 161.669 197.061 152.379 189.795 148.185C182.53 143.99 173.24 146.48 169.046 153.745C164.851 161.01 167.34 170.3 174.606 174.495Z" fill="#1C5955"/>
<path d="M216.056 237.89C223.503 242.19 233.11 239.491 237.514 231.863C241.918 224.234 239.452 214.565 232.005 210.265C224.558 205.966 214.951 208.665 210.547 216.293C206.143 223.922 208.609 233.591 216.056 237.89Z" fill="#1B403D"/>
<path d="M216.436 237.233C224.065 241.637 233.819 239.023 238.224 231.395C242.628 223.766 240.014 214.012 232.386 209.608C224.757 205.203 215.003 207.817 210.599 215.445C206.194 223.074 208.808 232.828 216.436 237.233Z" fill="#1C5955"/>
<defs>
<filter id="filter0_f_65_4692" x="59" y="24.0001" width="313" height="315" filterUnits="userSpaceOnUse" color-interpolation-filters="sRGB">
<feFlood flood-opacity="0" result="BackgroundImageFix"/>
<feBlend mode="normal" in="SourceGraphic" in2="BackgroundImageFix" result="shape"/>
<feGaussianBlur stdDeviation="15" result="effect1_foregroundBlur_65_4692"/>
</filter>
</defs>
</svg>
